<svg width="16" height="11" viewBox="0 0 16 11" fill="none" xmlns="http://www.w3.org/2000/svg">
<path d="M12.9882 4.58333C13.0824 4.30833 13.1765 4.03333 13.1765 3.66667C13.1765 1.65 11.4824 0 9.41176 0C8 0 6.68235 0.825 6.11765 2.01667C5.83529 1.925 5.45882 1.83333 5.17647 1.83333C3.85882 1.83333 2.82353 2.84167 2.82353 4.125C2.82353 4.30833 2.82353 4.49167 2.91765 4.58333C1.22353 4.85833 0 6.14167 0 7.79167C0 9.53333 1.50588 11 3.29412 11H12.7059C14.4941 11 16 9.53333 16 7.79167C16 6.14167 14.6824 4.76667 12.9882 4.58333ZM7.05882 9.99167L4.04706 7.05833L5.36471 5.775L7.05882 7.425L10.6353 3.94167L11.9529 5.225L7.05882 9.99167Z" fill="#51F94B"/>
</svg>
