<svg width="48" height="35" viewBox="0 0 48 35" fill="none" xmlns="http://www.w3.org/2000/svg">
<path d="M10.8823 0C13.9706 0 16.6098 1.2039 18.8011 3.6095C19.8424 4.724 20.6683 6.07972 21.2789 7.67663C21.8894 9.27462 22.1953 10.8823 22.1953 12.4986C22.1953 15.911 21.0818 19.3665 18.855 22.8683C16.6281 26.3701 13.6475 29.3421 9.91206 31.7832C6.75162 33.8669 4.27387 34.9081 2.47775 34.9081C1.75951 34.9081 1.16619 34.6928 0.69993 34.261C0.232593 33.8302 0 33.2541 0 32.537C0 31.4591 0.681623 30.561 2.04702 29.8428C5.31407 28.1544 7.70244 26.4842 9.21106 24.8335C10.6464 23.2893 11.3658 22.1587 11.3658 21.4404C11.3658 20.7577 10.8274 20.3442 9.75054 20.201L9.05061 20.0933L8.243 20.0395C5.90739 19.6798 4.01436 18.5933 2.55958 16.7811C1.10481 14.9688 0.377959 12.7667 0.377959 10.1813C0.377959 7.52479 1.27494 5.22577 3.07107 3.28643C5.11916 1.0962 7.72182 0 10.8823 0Z" fill="#E29D9D"/>
<path d="M36.686 0C39.7743 0 42.4136 1.2039 44.6049 3.6095C45.6462 4.724 46.4721 6.07972 47.0837 7.67663C47.6943 9.27462 48.0001 10.8823 48.0001 12.4986C48.0001 15.911 46.8867 19.3665 44.6598 22.8683C42.433 26.3701 39.4523 29.3421 35.7169 31.7832C32.5554 33.8669 30.0787 34.9081 28.2826 34.9081C27.5643 34.9081 26.9721 34.6928 26.5058 34.261C26.0385 33.8302 25.8059 33.2541 25.8059 32.537C25.8059 31.4591 26.4875 30.561 27.8529 29.8428C31.12 28.1544 33.5094 26.4842 35.017 24.8335C36.4534 23.2893 37.1717 22.1587 37.1717 21.4404C37.1717 20.7577 36.6333 20.3442 35.5554 20.201L34.8554 20.0933L34.0478 20.0395C31.7133 19.6798 29.8181 18.5933 28.3655 16.7811C26.9096 14.9677 26.1839 12.7667 26.1839 10.1813C26.1839 7.52479 27.0808 5.22577 28.877 3.28643C30.9229 1.0962 33.5256 0 36.686 0Z" fill="#E29D9D"/>
</svg>
